<mxfile host="app.diagrams.net" agent="Mozilla/5.0 (Windows NT 10.0; Win64; x64) AppleWebKit/537.36 (KHTML, like Gecko) Chrome/134.0.0.0 Safari/537.36" version="26.1.1">
  <diagram name="Page-1" id="vI1ZFkF_VZ9kpP50E2va">
    <mxGraphModel dx="1034" dy="1559" grid="1" gridSize="10" guides="1" tooltips="1" connect="1" arrows="1" fold="1" page="1" pageScale="1" pageWidth="850" pageHeight="1100" math="0" shadow="0">
      <root>
        <mxCell id="0" />
        <mxCell id="1" parent="0" />
        <mxCell id="fPaXjcl1kV30KWy46vOE-5" style="edgeStyle=orthogonalEdgeStyle;rounded=0;orthogonalLoop=1;jettySize=auto;html=1;entryX=0;entryY=0.5;entryDx=0;entryDy=0;" parent="1" source="fPaXjcl1kV30KWy46vOE-1" target="fPaXjcl1kV30KWy46vOE-4" edge="1">
          <mxGeometry relative="1" as="geometry" />
        </mxCell>
        <mxCell id="fPaXjcl1kV30KWy46vOE-1" value="Extracting annotations and translating sequences of genbank files" style="rounded=1;whiteSpace=wrap;html=1;absoluteArcSize=1;arcSize=14;strokeWidth=2;fillColor=#dae8fc;strokeColor=#6c8ebf;" parent="1" vertex="1">
          <mxGeometry x="10" y="440" width="100" height="100" as="geometry" />
        </mxCell>
        <mxCell id="SnxLVO1X2V7iQgOzjOkk-1" style="edgeStyle=orthogonalEdgeStyle;rounded=0;orthogonalLoop=1;jettySize=auto;html=1;entryX=0.5;entryY=1;entryDx=0;entryDy=0;" parent="1" source="fPaXjcl1kV30KWy46vOE-2" target="fPaXjcl1kV30KWy46vOE-1" edge="1">
          <mxGeometry relative="1" as="geometry" />
        </mxCell>
        <mxCell id="fPaXjcl1kV30KWy46vOE-2" value="Genbank files" style="strokeWidth=2;html=1;shape=mxgraph.flowchart.multi-document;whiteSpace=wrap;fillColor=#E1D5E7;strokeColor=#9673A6;" parent="1" vertex="1">
          <mxGeometry x="16" y="580" width="88" height="60" as="geometry" />
        </mxCell>
        <mxCell id="fPaXjcl1kV30KWy46vOE-4" value="Clustering by minimizers" style="rounded=1;whiteSpace=wrap;html=1;absoluteArcSize=1;arcSize=14;strokeWidth=2;fillColor=#dae8fc;strokeColor=#6c8ebf;" parent="1" vertex="1">
          <mxGeometry x="130" y="440" width="100" height="100" as="geometry" />
        </mxCell>
        <mxCell id="fPaXjcl1kV30KWy46vOE-6" value="Create BLASTp database" style="rounded=1;whiteSpace=wrap;html=1;absoluteArcSize=1;arcSize=14;strokeWidth=2;fillColor=#dae8fc;strokeColor=#6c8ebf;" parent="1" vertex="1">
          <mxGeometry x="250" y="440" width="100" height="100" as="geometry" />
        </mxCell>
        <mxCell id="SnxLVO1X2V7iQgOzjOkk-5" style="edgeStyle=orthogonalEdgeStyle;rounded=0;orthogonalLoop=1;jettySize=auto;html=1;entryX=0.5;entryY=1;entryDx=0;entryDy=0;" parent="1" source="fPaXjcl1kV30KWy46vOE-8" target="fPaXjcl1kV30KWy46vOE-9" edge="1">
          <mxGeometry relative="1" as="geometry" />
        </mxCell>
        <mxCell id="fPaXjcl1kV30KWy46vOE-8" value="Schema" style="strokeWidth=2;html=1;shape=mxgraph.flowchart.multi-document;whiteSpace=wrap;fillColor=#E1D5E7;strokeColor=#9673A6;" parent="1" vertex="1">
          <mxGeometry x="22" y="350" width="88" height="60" as="geometry" />
        </mxCell>
        <mxCell id="fPaXjcl1kV30KWy46vOE-9" value="Translating Schema loci" style="rounded=1;whiteSpace=wrap;html=1;absoluteArcSize=1;arcSize=14;strokeWidth=2;fillColor=#dae8fc;strokeColor=#6c8ebf;" parent="1" vertex="1">
          <mxGeometry x="16" y="220" width="100" height="100" as="geometry" />
        </mxCell>
        <mxCell id="SnxLVO1X2V7iQgOzjOkk-28" style="edgeStyle=orthogonalEdgeStyle;rounded=0;orthogonalLoop=1;jettySize=auto;html=1;entryX=0;entryY=0.5;entryDx=0;entryDy=0;" parent="1" source="fPaXjcl1kV30KWy46vOE-13" target="9kaDLu1qKZGZK0Ud_UY_-6" edge="1">
          <mxGeometry relative="1" as="geometry" />
        </mxCell>
        <mxCell id="kfc0RlZJ5dQQixqFh1_7-1" style="edgeStyle=orthogonalEdgeStyle;rounded=0;orthogonalLoop=1;jettySize=auto;html=1;" parent="1" source="fPaXjcl1kV30KWy46vOE-13" target="9kaDLu1qKZGZK0Ud_UY_-1" edge="1">
          <mxGeometry relative="1" as="geometry" />
        </mxCell>
        <mxCell id="fPaXjcl1kV30KWy46vOE-13" value="reps_&lt;div&gt;translations&lt;/div&gt;" style="strokeWidth=2;html=1;shape=mxgraph.flowchart.multi-document;whiteSpace=wrap;fillColor=#f8cecc;strokeColor=#b85450;" parent="1" vertex="1">
          <mxGeometry x="142" y="130" width="88" height="60" as="geometry" />
        </mxCell>
        <mxCell id="SnxLVO1X2V7iQgOzjOkk-24" style="edgeStyle=orthogonalEdgeStyle;rounded=0;orthogonalLoop=1;jettySize=auto;html=1;entryX=0.5;entryY=1;entryDx=0;entryDy=0;" parent="1" source="fPaXjcl1kV30KWy46vOE-15" target="fPaXjcl1kV30KWy46vOE-6" edge="1">
          <mxGeometry relative="1" as="geometry" />
        </mxCell>
        <mxCell id="fPaXjcl1kV30KWy46vOE-15" value="selected_genbank_&lt;div&gt;proteins.fasta&lt;/div&gt;" style="strokeWidth=2;html=1;shape=mxgraph.flowchart.document2;whiteSpace=wrap;size=0.25;fillColor=#f8cecc;strokeColor=#b85450;" parent="1" vertex="1">
          <mxGeometry x="130" y="580" width="100" height="60" as="geometry" />
        </mxCell>
        <mxCell id="fPaXjcl1kV30KWy46vOE-16" style="edgeStyle=orthogonalEdgeStyle;rounded=0;orthogonalLoop=1;jettySize=auto;html=1;entryX=0.5;entryY=0;entryDx=0;entryDy=0;entryPerimeter=0;" parent="1" source="fPaXjcl1kV30KWy46vOE-4" target="fPaXjcl1kV30KWy46vOE-15" edge="1">
          <mxGeometry relative="1" as="geometry" />
        </mxCell>
        <mxCell id="SnxLVO1X2V7iQgOzjOkk-9" style="edgeStyle=orthogonalEdgeStyle;rounded=0;orthogonalLoop=1;jettySize=auto;html=1;entryX=0.5;entryY=1;entryDx=0;entryDy=0;" parent="1" source="fPaXjcl1kV30KWy46vOE-17" target="9kaDLu1qKZGZK0Ud_UY_-6" edge="1">
          <mxGeometry relative="1" as="geometry" />
        </mxCell>
        <mxCell id="fPaXjcl1kV30KWy46vOE-17" value="blast_db" style="strokeWidth=2;html=1;shape=mxgraph.flowchart.multi-document;whiteSpace=wrap;fillColor=#f8cecc;strokeColor=#b85450;" parent="1" vertex="1">
          <mxGeometry x="381" y="460" width="88" height="60" as="geometry" />
        </mxCell>
        <mxCell id="fPaXjcl1kV30KWy46vOE-19" value="Process BLASTp Results and write to file" style="rounded=1;whiteSpace=wrap;html=1;absoluteArcSize=1;arcSize=14;strokeWidth=2;fillColor=#dae8fc;strokeColor=#6c8ebf;" parent="1" vertex="1">
          <mxGeometry x="530" y="110" width="100" height="100" as="geometry" />
        </mxCell>
        <mxCell id="fPaXjcl1kV30KWy46vOE-28" value="genbank_&lt;div&gt;annotations.tsv&lt;/div&gt;" style="strokeWidth=2;html=1;shape=mxgraph.flowchart.document2;whiteSpace=wrap;size=0.25;fillColor=#d5e8d4;strokeColor=#82b366;" parent="1" vertex="1">
          <mxGeometry x="670" y="130" width="100" height="60" as="geometry" />
        </mxCell>
        <mxCell id="kfc0RlZJ5dQQixqFh1_7-2" style="edgeStyle=orthogonalEdgeStyle;rounded=0;orthogonalLoop=1;jettySize=auto;html=1;" parent="1" source="9kaDLu1qKZGZK0Ud_UY_-1" target="fPaXjcl1kV30KWy46vOE-19" edge="1">
          <mxGeometry relative="1" as="geometry" />
        </mxCell>
        <mxCell id="9kaDLu1qKZGZK0Ud_UY_-1" value="Calculate self-score" style="rounded=1;whiteSpace=wrap;html=1;absoluteArcSize=1;arcSize=14;strokeWidth=2;fillColor=#dae8fc;strokeColor=#6c8ebf;" parent="1" vertex="1">
          <mxGeometry x="136" width="100" height="100" as="geometry" />
        </mxCell>
        <mxCell id="SnxLVO1X2V7iQgOzjOkk-10" style="edgeStyle=orthogonalEdgeStyle;rounded=0;orthogonalLoop=1;jettySize=auto;html=1;" parent="1" source="9kaDLu1qKZGZK0Ud_UY_-6" target="fPaXjcl1kV30KWy46vOE-19" edge="1">
          <mxGeometry relative="1" as="geometry" />
        </mxCell>
        <mxCell id="9kaDLu1qKZGZK0Ud_UY_-6" value="Run BLASTp" style="rounded=1;whiteSpace=wrap;html=1;absoluteArcSize=1;arcSize=14;strokeWidth=2;fillColor=#dae8fc;strokeColor=#6c8ebf;" parent="1" vertex="1">
          <mxGeometry x="375" y="110" width="100" height="100" as="geometry" />
        </mxCell>
        <mxCell id="SnxLVO1X2V7iQgOzjOkk-7" style="edgeStyle=orthogonalEdgeStyle;rounded=0;orthogonalLoop=1;jettySize=auto;html=1;entryX=0;entryY=0.5;entryDx=0;entryDy=0;entryPerimeter=0;" parent="1" source="fPaXjcl1kV30KWy46vOE-6" target="fPaXjcl1kV30KWy46vOE-17" edge="1">
          <mxGeometry relative="1" as="geometry" />
        </mxCell>
        <mxCell id="SnxLVO1X2V7iQgOzjOkk-15" style="edgeStyle=orthogonalEdgeStyle;rounded=0;orthogonalLoop=1;jettySize=auto;html=1;entryX=0;entryY=0.5;entryDx=0;entryDy=0;entryPerimeter=0;" parent="1" source="fPaXjcl1kV30KWy46vOE-19" target="fPaXjcl1kV30KWy46vOE-28" edge="1">
          <mxGeometry relative="1" as="geometry" />
        </mxCell>
        <mxCell id="SnxLVO1X2V7iQgOzjOkk-18" value="Processes" style="rounded=0;whiteSpace=wrap;html=1;fillColor=#dae8fc;strokeColor=#6c8ebf;" parent="1" vertex="1">
          <mxGeometry x="680" y="380" width="120" height="60" as="geometry" />
        </mxCell>
        <mxCell id="SnxLVO1X2V7iQgOzjOkk-19" value="Temporary files" style="rounded=0;whiteSpace=wrap;html=1;fillColor=#f8cecc;strokeColor=#b85450;" parent="1" vertex="1">
          <mxGeometry x="680" y="460" width="120" height="60" as="geometry" />
        </mxCell>
        <mxCell id="SnxLVO1X2V7iQgOzjOkk-20" value="Input files" style="rounded=0;whiteSpace=wrap;html=1;fillColor=#e1d5e7;strokeColor=#9673a6;" parent="1" vertex="1">
          <mxGeometry x="680" y="300" width="120" height="60" as="geometry" />
        </mxCell>
        <mxCell id="SnxLVO1X2V7iQgOzjOkk-21" value="Output files" style="rounded=0;whiteSpace=wrap;html=1;fillColor=#d5e8d4;strokeColor=#82b366;" parent="1" vertex="1">
          <mxGeometry x="680" y="540" width="120" height="60" as="geometry" />
        </mxCell>
        <mxCell id="SnxLVO1X2V7iQgOzjOkk-22" value="Color description:" style="text;html=1;align=center;verticalAlign=middle;resizable=0;points=[];autosize=1;strokeColor=none;fillColor=none;" parent="1" vertex="1">
          <mxGeometry x="570" y="255" width="110" height="30" as="geometry" />
        </mxCell>
        <mxCell id="SnxLVO1X2V7iQgOzjOkk-26" style="edgeStyle=orthogonalEdgeStyle;rounded=0;orthogonalLoop=1;jettySize=auto;html=1;entryX=0;entryY=0.5;entryDx=0;entryDy=0;entryPerimeter=0;" parent="1" source="fPaXjcl1kV30KWy46vOE-9" target="fPaXjcl1kV30KWy46vOE-13" edge="1">
          <mxGeometry relative="1" as="geometry">
            <Array as="points">
              <mxPoint x="66" y="160" />
            </Array>
          </mxGeometry>
        </mxCell>
      </root>
    </mxGraphModel>
  </diagram>
</mxfile>
